<?xml version="1.0" encoding="UTF-8"?>
<svg width="141px" height="54px" viewBox="0 0 141 54" version="1.1" xmlns="http://www.w3.org/2000/svg" xmlns:xlink="http://www.w3.org/1999/xlink">
    <!-- Generator: Sketch 53.2 (72643) - https://sketchapp.com -->
    <title>Shape</title>
    <desc>Created with Sketch.</desc>
    <g id="Page-1" stroke="none" stroke-width="1" fill="none" fill-rule="evenodd">
        <g id="Technologies" transform="translate(-495.000000, -479.000000)" fill="#FFCC36" fill-rule="nonzero">
            <path d="M594.854539,490.937608 L594.864987,491.103986 L595.209781,491.07279 C595.199333,490.968804 595.241126,490.802426 595.314265,490.594454 L595.28292,490.292894 C595.136643,490.303293 594.990367,490.521664 594.854539,490.937608 L594.854539,490.937608 Z M591.552871,483.034662 L591.521526,482.733102 L591.030456,482.774697 L591.061801,483.076256 L591.552871,483.034662 Z M581.971767,500.889081 C581.950871,500.608319 581.073212,499.516464 579.338792,497.592721 C579.307447,497.239168 579.903001,496.708839 581.125454,496.012132 L584.615191,492.986135 C585.398814,491.998267 585.85854,490.39688 585.994368,488.171577 L585.952575,487.662045 C585.816747,486.12305 584.698777,484.885615 582.57777,483.939341 C581.323972,483.097054 579.067136,482.629116 575.807262,482.545927 C573.111597,482.774697 569.590515,483.731369 565.254465,485.426343 C564.063357,486.279029 562.705076,487.131716 561.179622,487.984402 L561.200519,488.244367 C561.294554,488.233969 561.44083,488.181976 561.608003,488.067591 C561.785624,488.046794 561.890107,488.129983 561.900556,488.29636 L562.161764,488.161179 L562.287143,488.15078 L562.297592,488.265165 C562.30804,488.400347 561.367692,489.138648 559.466099,490.459272 L559.612375,490.729636 L559.486995,490.740035 L559.173546,490.62565 C559.183994,490.719237 559.048166,490.781629 558.786958,490.802426 L558.797406,490.916811 L559.100408,491.291161 C559.006373,491.30156 558.860096,491.259965 558.661578,491.187175 C558.222749,491.228769 557.794368,491.457539 557.365987,491.894281 L557.543609,491.124783 C558.180956,488.389948 558.619785,485.967071 558.849648,483.866551 L558.818303,483.731369 C558.379474,483.450607 557.951093,483.055459 557.554057,482.556326 C557.564505,482.233969 557.564505,482.046794 557.554057,482.005199 L557.522712,481.890815 L557.397332,481.92201 C556.018155,483.980936 553.364283,487.495667 549.425269,492.466205 C546.426602,496.001733 544.880252,497.967071 544.786217,498.362218 C543.563764,499.620451 542.978659,500.379549 543.041349,500.639515 C542.717451,500.847487 542.581623,501.055459 542.633864,501.284229 C542.53983,501.305026 542.47714,501.27383 542.456243,501.180243 C541.933827,502.02253 541.160652,502.563258 540.126269,502.802426 L539.039644,503.051993 C538.893368,503.083189 538.82023,503.187175 538.830678,503.363951 L538.862023,503.499133 L539.269507,503.405546 L539.300852,503.519931 L538.381401,503.873484 L536.751464,504.247834 L535.894702,504.299827 C535.769322,504.42461 536.573842,504.289428 536.260393,504.362218 L535.194665,504.611785 C534.546869,504.757366 534.191627,504.705373 534.128937,504.445407 L534.003557,504.476603 C534.024454,504.590988 534.034902,504.674177 534.014005,504.746967 L533.951315,504.487002 L533.094554,504.684575 C533.031864,504.289428 531.872101,502.854419 529.625713,500.379549 C529.58392,499.901213 530.377992,499.204506 531.997481,498.299827 L536.573842,494.29636 C537.597777,492.986135 538.203779,490.885615 538.402297,487.994801 L538.339607,487.318891 C538.161986,485.280763 536.678325,483.637782 533.888625,482.369151 C532.237792,481.256499 529.270471,480.663778 524.986662,480.570191 C521.434235,480.87175 516.795183,482.129983 511.090404,484.32409 C509.523157,485.457539 507.736495,486.580589 505.730419,487.693241 L505.761764,488.046794 C505.897592,488.036395 506.075213,487.963605 506.294628,487.838821 C506.524491,487.818024 506.64987,487.92201 506.670767,488.129983 L507.02601,487.932409 L507.203631,487.92201 L507.214079,488.088388 C507.224528,488.254766 505.981178,489.221837 503.463134,490.989601 L503.661652,491.30156 L503.484031,491.311958 L503.097443,491.176776 C503.107892,491.280763 502.93027,491.353553 502.564579,491.384749 L502.585476,491.571924 L503.003409,492.029463 C502.867581,492.039861 502.679511,491.998267 502.4392,491.915078 C501.624231,491.987868 500.830159,492.570191 500.046536,493.672444 L500.245054,493.984402 C500.924194,493.360485 501.32123,493.048527 501.436162,493.038128 L501.477955,493.54766 C501.363023,493.558059 501.185402,493.630849 500.945091,493.755633 L501.373472,494.400347 C502.198888,493.516464 503.107892,492.757366 504.100482,492.12305 C504.591552,492.247834 504.85276,492.403813 504.863209,492.570191 L505.239348,492.538995 C507.935013,490.55286 510.599333,489.117851 513.242757,488.233969 L513.274102,488.587522 C512.783031,489.315425 512.448685,489.689775 512.271063,489.710572 C512.29196,489.960139 512.375546,490.17851 512.532271,490.365685 C512.574064,490.812825 511.372508,493.828423 508.938051,499.40208 C503.410893,512.358752 498.771841,521.946274 495,528.143847 C495.010448,528.268631 495.083587,528.435009 495.219415,528.642981 C496.149315,528.42461 496.73442,528.195841 496.98518,527.97747 L497.183698,527.956672 L497.215043,528.310225 L497.559837,528.279029 L497.91508,528.081456 C497.925528,528.185442 498.040459,528.237435 498.280771,528.216638 L498.312116,528.570191 C498.343461,528.913345 498.144943,529.433276 497.72701,530.15078 C497.350871,530.577123 496.943386,531.471404 496.515006,532.833622 L496.525454,533 L496.870248,532.968804 C498.374805,531.294627 499.513672,529.651646 500.297295,528.05026 C504.685587,526.771231 508.029048,525.512998 510.348574,524.275563 C512.678548,524.07799 514.454761,523.464471 515.666765,522.455806 L515.645869,522.268631 L514.76821,522.528596 L514.569692,522.549393 L514.548796,522.362218 C516.262319,522.102253 517.442979,521.727903 518.101223,521.207972 C521.434235,518.649913 523.952279,516.840555 525.655354,515.769497 C529.155539,513.211438 531.433272,510.715771 532.467655,508.292894 C532.655724,508.2513 532.843794,508.209705 533.05276,508.157712 C533.543831,508.136915 533.815487,508.126516 533.888625,508.105719 C533.867729,508.012132 533.909522,507.960139 534.003557,507.939341 C534.78718,507.856153 534.411041,507.991334 534.91256,507.87695 L536.229048,507.57539 L536.448462,507.523397 L536.343979,507.585789 C536.490256,507.606586 536.64698,507.596187 536.824602,507.554593 L536.918637,507.939341 L530.931753,517.412478 L529.604817,519.065858 L528.957021,521.228769 L529.082401,521.197574 L529.730196,520.92721 L529.52123,521.769497 L529.58392,522.019064 L529.761541,522.237435 C529.677955,522.258232 529.64661,522.310225 529.667506,522.403813 L529.698851,522.538995 L529.970508,522.476603 C530.367544,522.133449 530.534717,521.82149 530.472027,521.540728 C530.900408,521.613518 531.182512,521.644714 531.328788,521.60312 L531.360133,521.738302 C531.098926,521.800693 530.963097,522.008666 530.942201,522.362218 L530.973546,522.4974 L531.119822,522.466205 C533.293072,520.105719 538.621712,512.025997 542.895072,506.545927 C542.759244,505.953206 544.984735,505.131716 549.581993,504.071057 L549.72827,504.039861 C549.895443,504.757366 549.5402,506.493934 548.662542,509.249567 C548.098333,510.913345 547.826677,511.828423 547.86847,511.974003 C547.137088,514.188908 546.792293,515.384749 546.834087,515.571924 L545.20415,520.885615 C544.14887,523.610052 543.34435,526.469671 542.780141,529.485269 C542.874176,529.464471 543.020452,529.47487 543.229418,529.526863 L543.459281,529.329289 C543.480178,529.422877 543.542868,529.454073 543.636903,529.433276 L543.542868,529.048527 L544.253353,529.02773 C544.462319,528.975737 544.639941,528.715771 544.786217,528.237435 C544.754872,527.519931 544.901149,527.135182 545.225046,527.051993 C545.663876,525.34662 545.935532,524.493934 546.029567,524.462738 C546.437051,522.767764 546.740052,521.800693 546.93857,521.561525 C547.55502,519.357019 548.004298,518.22357 548.296851,518.15078 L548.359541,518.421144 L547.910263,519.57539 C547.126639,523.038128 546.332568,525.772964 545.528047,527.779896 L545.75791,528.778163 L545.904187,528.746967 C547.847573,524.587522 550.647721,516.35182 554.294183,504.039861 C554.398666,502.958406 554.921082,502.116118 555.850982,501.523397 L555.642016,501.305026 L555.610671,501.190641 C556.028603,501.097054 556.321156,500.930676 556.488329,500.701906 C556.467432,500.608319 556.101741,500.473137 555.391256,500.285962 L557.209263,492.528596 C557.606299,492.175043 557.836162,491.987868 557.9093,491.987868 L557.940645,492.383016 C557.84661,492.393414 557.700333,492.445407 557.53316,492.559792 L557.877955,493.048527 C558.504854,492.372617 559.183994,491.790295 559.925824,491.30156 C560.301964,491.405546 560.490033,491.530329 560.51093,491.655113 L560.782586,491.634315 C562.851352,490.126516 564.878325,489.045061 566.873953,488.389948 L566.89485,488.649913 C566.529159,489.20104 566.278399,489.481802 566.142571,489.492201 C566.163468,489.679376 566.21571,489.845754 566.309744,489.991334 C566.341089,490.334489 565.442534,492.622184 563.603631,496.864818 C559.403409,506.691508 555.882327,513.960139 553.019489,518.681109 C553.029937,518.774697 553.092627,518.89948 553.207558,519.065858 C553.907595,518.89948 554.356873,518.722704 554.534494,518.556326 L554.659874,518.545927 L554.680771,518.805893 L554.973323,518.785095 L555.234531,518.649913 C555.24498,518.722704 555.339014,518.753899 555.516636,518.743501 L555.537532,519.024263 C555.558429,519.27383 555.412153,519.668977 555.088255,520.209705 C554.785254,520.532062 554.471804,521.207972 554.137458,522.237435 L554.147907,522.372617 L554.419563,522.35182 C555.558429,521.083189 556.425639,519.835355 557.021193,518.608319 C560.354205,517.630849 562.893146,516.684575 564.648462,515.7487 C566.435124,515.592721 567.782957,515.135182 568.702408,514.365685 L568.69196,514.230503 L568.01282,514.428076 L567.866543,514.438475 L567.856095,514.303293 C569.151686,514.116118 570.060689,513.824957 570.55176,513.440208 C573.080252,511.506066 574.992293,510.12305 576.287884,509.311958 C580.320934,506.389948 582.20163,503.582322 581.971767,500.889081 L581.971767,500.889081 Z M581.282179,501.065858 L581.376213,502.116118 C581.250834,502.376083 581.115006,502.511265 580.989626,502.521664 L580.832901,500.733102 C581.125454,500.837088 581.27173,500.941075 581.282179,501.065858 L581.282179,501.065858 Z M502.167544,492.601386 L501.989922,492.611785 L501.958577,492.289428 L502.679511,492.227036 L502.689959,492.393414 C502.575028,492.403813 502.397406,492.466205 502.167544,492.601386 Z M498.646462,527.655113 C498.228529,527.467938 497.85239,527.395147 497.528492,527.426343 L497.486699,526.916811 C497.465802,526.719237 497.580734,526.584055 497.831493,526.532062 C498.061356,526.511265 498.197184,526.677643 498.218081,527.010399 C498.824083,526.272097 499.158429,525.897747 499.221119,525.887348 L499.607707,526.043328 C499.482327,527.083189 499.158429,527.613518 498.646462,527.655113 Z M536.270841,488.483536 C536.09322,488.504333 535.737977,487.953206 535.22601,486.861352 L535.194665,486.538995 C535.529011,486.507799 535.873805,487.048527 536.239496,488.161179 L536.270841,488.483536 Z M535.769322,484.604853 L535.623046,484.948007 L530.51382,482.82669 C533.91997,482.941075 535.675287,483.533795 535.769322,484.604853 Z M514.193553,503.041594 L513.472619,503.103986 L513.441275,502.781629 L514.162208,502.719237 L514.193553,503.041594 Z M513.608448,491.967071 L513.786069,491.956672 L513.827862,492.466205 C513.660689,492.476603 513.441275,492.72617 513.169618,493.204506 L513.138273,492.850953 C513.462171,492.466205 513.629344,492.175043 513.608448,491.967071 L513.608448,491.967071 Z M512.093442,495.523397 L512.156132,496.199307 L511.978511,496.209705 L511.915821,495.533795 L512.093442,495.523397 Z M511.29937,496.792028 L511.644165,496.760832 C511.61282,497.322357 511.456095,497.623917 511.17399,497.644714 L510.996369,497.655113 C511.215784,497.280763 511.320267,496.989601 511.29937,496.792028 Z M510.703816,498.559792 L510.902334,498.538995 L510.912783,498.705373 L510.588885,499.246101 L510.24409,499.277296 L510.233642,499.110919 C510.578436,499.079723 510.735161,498.902946 510.703816,498.559792 L510.703816,498.559792 Z M510.118711,500.15078 L510.014227,501.003466 L509.836606,501.013865 L509.763468,500.171577 L510.118711,500.15078 Z M504.257206,516.736568 C504.027343,517.901213 503.776584,518.493934 503.515376,518.514731 L503.504928,518.348354 C503.442238,517.77643 503.692997,517.235702 504.257206,516.736568 Z M503.18103,519.055459 L503.191478,519.221837 C503.212375,519.450607 503.107892,519.585789 502.878029,519.596187 L502.867581,519.429809 C502.846684,519.232236 502.951167,519.107452 503.18103,519.055459 Z M502.867581,523.870017 L503.410893,523.818024 L503.43179,524.005199 C503.295961,524.015598 503.11834,524.088388 502.898926,524.213172 L502.554131,524.244367 C502.533235,524.067591 502.648166,523.932409 502.867581,523.870017 L502.867581,523.870017 Z M518.331086,519.117851 C515.280178,520.615251 513.483068,521.634315 512.950204,522.164645 C509.648536,523.308492 508.008151,524.015598 508.039496,524.29636 C505.10352,525.450607 503.170582,526.303293 502.240682,526.833622 C502.021267,526.854419 501.707818,526.771231 501.289885,526.584055 C501.237644,525.991334 501.5093,525.512998 502.083957,525.12825 C502.595924,525.086655 503.086995,525.159445 503.557169,525.357019 C504.100482,525.076256 505.051278,524.764298 506.399111,524.431542 L506.367766,524.07799 L505.281141,524.171577 C505.416969,523.984402 506.461801,523.495667 508.426084,522.705373 L508.969396,522.65338 L508.979844,522.819757 C508.049944,522.902946 507.537977,523.17331 507.423046,523.662045 C507.443942,523.880416 507.569322,523.974003 507.799185,523.953206 C508.499222,523.516464 508.844016,523.256499 508.833568,523.183709 C510.160504,522.934142 513.827862,521.020797 519.835643,517.454073 L519.866988,517.77643 C519.877436,517.932409 519.365469,518.369151 518.331086,519.117851 L518.331086,519.117851 Z M509.115672,522.133449 C509.993331,522.060659 510.745609,521.707106 511.372508,521.093588 C511.623268,521.07279 511.759096,521.166378 511.769544,521.384749 C511.341163,521.426343 510.515747,521.779896 509.31419,522.466205 L509.136569,522.476603 L509.115672,522.133449 L509.115672,522.133449 Z M523.983624,510.767764 L519.375917,514.407279 C515.94887,516.642981 514.109967,517.766031 513.83831,517.786828 C508.38429,520.771231 504.988588,522.320624 503.672101,522.435009 L503.473583,522.455806 C503.640756,521.842288 506.064765,516.902946 510.766506,507.606586 C512.835272,507.429809 516.095146,506.473137 520.53568,504.72617 L521.622305,504.632582 C523.868692,504.435009 525.550871,504.87175 526.658392,505.911612 L526.721082,506.587522 C525.895665,508.968804 524.976213,510.362218 523.983624,510.767764 L523.983624,510.767764 Z M514.977177,505.724437 L515.719007,505.662045 L515.729455,505.828423 L514.987625,505.890815 L514.977177,505.724437 Z M525.394146,503.967071 L525.937458,503.915078 C526.438977,504.154246 526.700185,504.362218 526.721082,504.549393 L526.73153,504.715771 C526.250908,504.757366 525.80163,504.507799 525.394146,503.967071 L525.394146,503.967071 Z M526.867358,495.616984 C526.386736,496.188908 525.070248,497.166378 522.917896,498.538995 C522.20741,498.601386 519.563987,499.620451 514.987625,501.616984 C514.757762,501.512998 514.517451,501.471404 514.256243,501.492201 L514.224898,501.169844 C514.172657,500.514731 514.465209,499.693241 515.113005,498.694974 C515.468247,496.823224 515.854835,495.752166 516.283216,495.492201 L520.096851,486.954939 C520.055057,486.42461 520.870026,486.019064 522.541756,485.738302 L523.085069,485.686308 L523.126862,486.175043 C524.767247,485.925477 525.791182,485.779896 526.188218,485.7487 C529.218229,485.488735 530.795924,486.102253 530.921304,487.568458 L531.266099,487.537262 L531.19296,486.674177 L531.5691,486.642981 C532.457206,487.131716 532.937829,487.724437 533.000519,488.421144 C533.042312,488.89948 532.781104,489.492201 532.227343,490.199307 C531.997481,490.220104 531.861652,490.053726 531.840756,489.720971 L531.464617,489.752166 L531.38103,490.792028 C529.845128,493.079723 528.727158,494.254766 528.037569,494.317158 C527.410671,495.180243 527.024083,495.606586 526.867358,495.616984 Z M529.207781,501.596187 C528.894331,501.388215 528.643572,501.294627 528.455502,501.305026 L528.413709,500.795494 L528.758503,500.764298 L529.52123,501.211438 C529.552575,501.450607 529.448092,501.57539 529.207781,501.596187 L529.207781,501.596187 Z M531.63179,504.455806 C531.966136,504.590988 532.164654,504.736568 532.206447,504.87175 L532.039274,504.913345 L532.049722,504.923744 C532.018377,504.923744 531.976584,504.934142 531.945239,504.944541 L531.694479,505.142114 L531.63179,504.455806 L531.63179,504.455806 Z M531.861652,505.890815 L531.830308,505.755633 L532.269137,505.651646 L532.300482,505.786828 L531.861652,505.890815 Z M532.916932,507.065858 C533.36621,506.993068 533.585624,506.961872 534.421489,506.774697 L534.452834,506.909879 L532.864691,507.27383 C532.885587,507.20104 532.906484,507.12825 532.916932,507.065858 Z M534.463283,507.720971 C533.794591,507.783362 533.940867,507.700173 532.875139,507.939341 L532.843794,507.804159 L534.181178,507.377816 L534.818525,507.232236 L534.881215,507.481802 C534.588662,507.544194 534.797629,507.544194 534.463283,507.720971 Z M535.873805,507.388215 C535.71708,507.429809 535.591701,507.357019 535.518562,507.180243 L535.926047,507.086655 C536.103668,507.045061 536.218599,507.117851 536.260393,507.294627 L535.873805,507.388215 Z M539.697888,503.291161 L539.666543,503.155979 L540.324787,503 L540.387477,503.249567 L539.697888,503.291161 L539.697888,503.291161 Z M543.783179,528.227036 C543.824972,528.039861 543.835421,527.904679 543.814524,527.811092 L543.9608,527.779896 C544.138422,527.738302 544.242905,527.800693 544.284698,527.967071 L544.316043,528.102253 L543.783179,528.227036 L543.783179,528.227036 Z M546.646017,504.362218 L546.353464,504.310225 C545.88329,504.4974 545.486254,504.632582 545.162356,504.705373 L544.8907,504.767764 C544.733976,504.809359 544.608596,504.746967 544.545906,504.580589 L546.457947,504.143847 L547.084846,503.852686 L547.293813,504.091854 C546.990811,504.154246 546.771397,504.247834 546.646017,504.362218 L546.646017,504.362218 Z M548.119229,503.894281 L548.087884,503.759099 C548.181919,503.738302 548.307299,503.665511 548.443127,503.530329 L549.801408,503.218371 L549.832753,503.353553 C549.111819,503.530329 548.537162,503.707106 548.119229,503.894281 Z M548.328196,501.159445 C548.234161,501.180243 548.108781,501.263432 547.952056,501.388215 C547.93116,501.294627 547.74309,501.294627 547.387847,501.377816 C547.325157,501.117851 548.328196,500.753899 550.40741,500.275563 L550.699963,500.213172 L550.762653,500.462738 C549.299889,500.889081 548.48492,501.12825 548.328196,501.159445 L548.328196,501.159445 Z M551.985106,497.228769 C551.838829,498.882149 551.253724,499.818024 550.21934,500.057192 L550.187996,499.92201 L549.268544,500.275563 L548.86106,500.369151 C548.652093,500.421144 548.464024,500.410745 548.296851,500.358752 L548.213264,499.994801 C548.181919,499.859619 549.508855,498.029463 552.20452,494.514731 L552.51797,494.566724 C552.632901,495.045061 552.45528,495.928943 551.985106,497.228769 L551.985106,497.228769 Z M558.452612,491.717504 L558.327232,491.727903 L558.306336,491.467938 L558.849648,491.415945 L558.860096,491.551127 C558.766062,491.571924 558.630233,491.623917 558.452612,491.717504 Z M555.788292,518.348354 C555.474843,518.202773 555.192738,518.140381 554.952427,518.161179 L554.921082,517.766031 C554.910634,517.630849 554.99422,517.537262 555.171841,517.485269 C555.349463,517.464471 555.453946,517.589255 555.474843,517.859619 C555.92412,517.287695 556.17488,516.996534 556.227121,516.996534 L556.509226,517.110919 C556.404742,517.901213 556.164431,518.317158 555.788292,518.348354 L555.788292,518.348354 Z M584.353983,488.608319 C584.218155,488.618718 583.956947,488.202773 583.549463,487.360485 L583.528566,487.10052 C583.789774,487.079723 584.06143,487.485269 584.333086,488.317158 L584.353983,488.608319 Z M583.977844,485.634315 L583.852464,485.904679 L579.986588,484.292894 C582.567321,484.376083 583.904705,484.823224 583.977844,485.634315 Z M567.584439,499.641248 L567.041126,499.693241 L567.02023,499.433276 L567.563542,499.381282 L567.584439,499.641248 Z M567.135161,491.228769 L567.281438,491.218371 L567.312783,491.613518 C567.176954,491.623917 567.009781,491.811092 566.811263,492.175043 L566.790367,491.915078 C567.030678,491.613518 567.145609,491.384749 567.135161,491.228769 L567.135161,491.228769 Z M565.996295,493.932409 L566.038088,494.441941 L565.891812,494.45234 L565.850019,493.942808 L565.996295,493.932409 Z M565.379844,494.89948 L565.651501,494.878683 C565.620156,495.315425 565.505224,495.544194 565.306706,495.564991 L565.16043,495.57539 C565.317155,495.284229 565.390293,495.055459 565.379844,494.89948 L565.379844,494.89948 Z M564.941015,496.230503 L565.066395,496.220104 L565.076843,496.355286 L564.836532,496.771231 L564.564876,496.792028 L564.554428,496.656846 C564.836532,496.636049 564.961912,496.490468 564.941015,496.230503 L564.941015,496.230503 Z M564.502186,497.436742 L564.408151,498.102253 L564.282771,498.112652 L564.23053,497.457539 L564.502186,497.436742 Z M560.040756,510.05026 C559.863134,510.923744 559.675065,511.370884 559.476547,511.391681 L559.466099,511.277296 C559.434754,510.840555 559.622823,510.42461 560.040756,510.05026 L560.040756,510.05026 Z M559.215339,511.807626 L559.225787,511.92201 C559.246684,512.109185 559.163097,512.213172 558.975028,512.22357 L558.964579,512.088388 C558.954131,511.953206 559.037718,511.859619 559.215339,511.807626 Z M558.985476,515.467938 L559.403409,515.436742 L559.413857,515.571924 C559.319822,515.582322 559.173546,515.634315 559.006373,515.727903 L558.734717,515.7487 C558.724268,515.60312 558.807855,515.509532 558.985476,515.467938 Z M570.718933,511.859619 C568.420304,512.993068 567.051575,513.762565 566.623194,514.157712 C564.115598,515.031196 562.872249,515.571924 562.893146,515.790295 C560.667655,516.674177 559.204891,517.308492 558.515302,517.714038 C558.348129,517.724437 558.107818,517.662045 557.794368,517.516464 C557.752575,517.069324 557.961541,516.705373 558.400371,516.435009 C558.797406,516.403813 559.173546,516.455806 559.51834,516.601386 C559.936273,516.393414 560.657206,516.164645 561.681141,515.904679 L561.660245,515.644714 L560.813931,515.717504 C560.918414,515.571924 561.722934,515.197574 563.217043,514.594454 L563.634976,514.563258 L563.645424,514.677643 C562.934939,514.740035 562.537903,514.948007 562.454316,515.322357 C562.464765,515.488735 562.569248,515.571924 562.746869,515.551127 C563.269285,515.207972 563.520044,515.010399 563.520044,514.948007 C564.523083,514.771231 567.302334,513.315425 571.868247,510.590988 L571.889144,510.850953 C571.889144,510.954939 571.502557,511.287695 570.718933,511.859619 L570.718933,511.859619 Z M563.718562,514.147314 C564.397703,514.084922 564.97236,513.824957 565.452983,513.367418 C565.630604,513.357019 565.735087,513.429809 565.745535,513.596187 C565.432086,513.627383 564.815635,513.887348 563.885735,514.386482 L563.739459,514.39688 L563.718562,514.147314 L563.718562,514.147314 Z M575.023638,505.506066 L571.54435,508.292894 C568.94272,509.987868 567.532197,510.840555 567.312783,510.861352 C563.17525,513.12825 560.604965,514.303293 559.591478,514.386482 L559.445202,514.39688 C559.570582,513.928943 561.419933,510.175043 564.993257,503.124783 C566.550056,502.989601 569.015858,502.2513 572.401112,500.920277 L573.247425,500.847487 C574.9505,500.701906 576.225195,501.034662 577.06106,501.835355 L577.102853,502.344887 C576.465506,504.133449 575.775917,505.183709 575.023638,505.506066 L575.023638,505.506066 Z M568.190441,501.679376 L568.733753,501.627383 L568.744202,501.762565 L568.200889,501.814558 L568.190441,501.679376 Z M576.099815,500.337955 L576.517747,500.306759 C576.904335,500.493934 577.102853,500.660312 577.113301,500.795494 L577.12375,500.909879 C576.758059,500.941075 576.413264,500.753899 576.099815,500.337955 L576.099815,500.337955 Z M577.196888,494.005199 C576.831197,494.441941 575.838607,495.190641 574.219118,496.230503 C573.675806,496.282496 571.66973,497.051993 568.200889,498.549393 C568.033716,498.487002 567.845647,498.466205 567.647129,498.476603 L567.626232,498.216638 C567.584439,497.717504 567.803853,497.093588 568.284476,496.334489 C568.556132,494.89948 568.859133,494.098787 569.172582,493.911612 L572.087662,487.422877 C572.056317,487.038128 572.672768,486.72617 573.926565,486.487002 L574.344498,486.455806 L574.375843,486.850953 C575.608744,486.65338 576.381919,486.538995 576.695369,486.507799 C578.993998,486.310225 580.195554,486.767764 580.289589,487.890815 L580.561245,487.870017 L580.509003,487.246101 L580.78066,487.225303 C581.449352,487.589255 581.804594,488.025997 581.846388,488.545927 C581.877732,488.920277 581.689663,489.377816 581.292627,489.908146 C581.115006,489.928943 581.010522,489.804159 580.989626,489.533795 L580.71797,489.554593 L580.634383,490.334489 C579.47462,492.091854 578.628307,492.996534 578.095443,493.038128 C577.625269,493.672444 577.332716,493.994801 577.196888,494.005199 L577.196888,494.005199 Z M578.41934,498.331023 L578.387996,497.935875 L578.659652,497.915078 L579.244757,498.268631 C579.255206,498.435009 579.171619,498.528596 578.993998,498.549393 C578.743238,498.393414 578.555169,498.320624 578.41934,498.331023 L578.41934,498.331023 Z M529.782438,523.589255 L529.510782,523.651646 L529.280919,523.84922 C529.322712,524.015598 529.427195,524.07799 529.604817,524.036395 C529.782438,523.994801 529.855576,523.890815 529.813783,523.724437 L529.782438,523.589255 Z M528.748055,521.540728 L528.7794,521.67591 C528.957021,521.634315 529.030159,521.530329 528.988366,521.363951 L528.957021,521.228769 C528.789848,521.270364 528.71671,521.37435 528.748055,521.540728 Z M536.145461,507.710572 L536.343979,507.585789 C536.302186,507.585789 536.270841,507.57539 536.239496,507.564991 C536.166358,507.585789 536.135013,507.637782 536.145461,507.710572 Z M536.103668,504.12305 L536.417117,504.05026 L536.354428,503.779896 L536.040978,503.852686 L536.103668,504.12305 Z M609.941904,514.62565 L609.231419,514.542461 L609.106039,514.812825 L609.116488,514.948007 L613.348055,514.594454 L613.327158,514.334489 L609.941904,514.62565 L609.941904,514.62565 Z M613.807781,514.303293 L613.828677,514.563258 L613.870471,514.563258 L613.849574,514.303293 L613.807781,514.303293 Z M631.559466,511.994801 L631.580363,512.254766 L632.040089,512.337955 L632.019192,512.07799 L631.559466,511.994801 Z M630.911671,512.046794 C627.735383,512.753899 627.338348,512.629116 626.669655,512.681109 L626.690552,512.941075 L626.983105,512.920277 L627.13983,512.909879 L627.098036,512.878683 L627.442831,512.743501 C630.587773,512.400347 630.953464,512.52513 630.922119,512.171577 L630.911671,512.046794 Z M611.843498,507.450607 L611.561393,507.357019 C611.33153,507.970537 611.216599,508.334489 611.227047,508.438475 L611.237495,508.55286 C611.45691,508.542461 611.655428,508.168111 611.843498,507.450607 L611.843498,507.450607 Z M608.019415,505.40208 L608.008966,505.266898 L607.86269,505.277296 L607.601482,505.443674 L607.747758,505.693241 C607.946276,505.672444 608.040311,505.578856 608.019415,505.40208 Z M616.325824,513.94974 L616.304928,513.689775 L616.221341,513.700173 L616.242238,513.960139 L616.325824,513.94974 Z M633.565543,510.081456 L633.764061,510.060659 C633.878992,510.05026 633.931234,509.956672 633.920785,509.790295 L633.805854,509.540728 C633.08492,509.60312 632.750574,509.634315 632.165469,509.956672 L632.15502,509.82149 L631.28781,509.904679 C631.266914,509.644714 631.193775,509.509532 631.078844,509.519931 L630.629567,509.561525 C630.107151,509.60312 629.856391,509.582322 629.595183,509.779896 C629.584735,509.686308 629.55339,509.644714 629.501149,509.644714 L628.999629,509.686308 L628.707077,509.852686 C628.696628,509.759099 628.665283,509.717504 628.613042,509.717504 L628.435421,509.873484 L628.424972,509.738302 L627.724935,509.686308 L627.557762,509.696707 L627.578659,509.956672 L627.933901,510.05026 L628.268247,510.029463 C628.383179,510.102253 628.508559,510.12305 628.654835,510.112652 L628.947388,509.967071 L628.957836,510.081456 C627.317451,510.487002 627.327899,510.414211 626.199481,510.601386 C626.074102,510.518198 625.980067,510.476603 625.917377,510.487002 L625.89648,510.507799 C625.7711,510.4974 625.697962,510.414211 625.687514,510.279029 L626.272619,510.206239 C626.314413,510.206239 626.345758,510.247834 626.669655,510.310225 C627.13983,510.081456 627.160726,509.987868 627.411486,509.967071 L627.390589,509.707106 C625.781549,510.019064 626.429344,509.811092 624.41282,509.987868 L624.318785,509.998267 L624.297888,509.738302 C626.88907,509.426343 626.02186,509.60312 626.909967,509.353553 C626.920415,509.44714 626.95176,509.488735 627.004001,509.488735 C627.108485,509.384749 627.223416,509.332756 627.359244,509.311958 L627.536866,509.30156 C628.445869,509.228769 628.74887,509.405546 630.54598,508.906412 L630.556428,509.020797 L630.848981,508.875217 L631.120637,508.854419 C631.099741,508.594454 631.496777,508.55286 631.632605,508.542461 L631.611708,508.261698 C628.456317,508.896014 627.6309,508.719237 626.753242,508.968804 L626.742794,508.854419 C625.917377,509 625.886032,508.937608 625.677066,508.948007 C625.614376,508.958406 625.520341,509.010399 625.415858,509.114385 C625.405409,509.020797 625.374064,508.979203 625.311375,508.979203 C625.28003,508.979203 625.269581,508.989601 625.259133,508.989601 L622.584365,509.426343 C622.573916,509.353553 622.542571,509.311958 622.479881,509.322357 C621.090256,509.613518 621.466395,509.665511 619.606595,509.831889 C619.523009,509.842288 619.408077,509.883882 619.261801,509.97747 C619.251352,509.904679 619.209559,509.863085 619.115524,509.873484 L617.976658,509.967071 L617.213931,510.154246 C617.203483,510.081456 617.16169,510.039861 617.067655,510.05026 C616.639274,510.164645 616.263134,510.237435 615.960133,510.258232 L615.939237,510.258232 C615.751167,510.279029 616.033272,510.206239 615.886995,510.143847 L615.657132,510.279029 C615.322786,510.310225 615.500408,510.258232 614.351093,510.268631 C612.334568,510.518198 612.553983,510.549393 612.334568,510.559792 L611.58229,510.507799 C611.592738,510.580589 611.550945,510.632582 611.467358,510.632582 C610.610597,510.518198 610.171767,510.383016 610.161319,510.227036 C610.27625,509.415945 610.474768,509 610.756873,508.979203 L610.903149,508.968804 L610.77777,509.239168 L610.924046,509.228769 C611.195702,509.083189 611.321082,508.948007 611.310634,508.823224 L611.289737,508.542461 L611.018081,508.563258 L610.997184,508.303293 C610.976288,508.105719 611.007632,507.928943 611.080771,507.783362 L611.697221,506.795494 L611.718118,507.055459 L612.010671,507.034662 L611.989774,506.774697 L611.822601,506.535529 C612.042016,506.348354 612.209189,506.244367 612.345017,506.233969 L612.334568,506.098787 L611.937532,506.129983 L611.906187,505.734835 C612.700259,504.091854 613.076399,503.135182 613.055502,502.864818 L613.337607,502.979203 C613.515228,502.968804 613.598814,502.864818 613.588366,502.677643 L613.31671,502.69844 L613.306262,502.584055 C613.285365,502.386482 613.327158,502.199307 613.410745,502.032929 C613.839126,501.585789 614.037644,501.138648 613.99585,500.670711 C614.079437,500.660312 614.12123,500.701906 614.131678,500.795494 C614.497369,500.587522 614.779474,500.036395 614.98844,499.121317 C615.636236,497.956672 616.555687,495.627383 617.757243,492.143847 C620.055873,485.987868 619.961838,485.332756 620.285735,483.87695 L620.014079,483.897747 C620.034976,484.084922 619.993183,484.261698 619.909596,484.428076 C619.721526,484.355286 619.57525,484.313692 619.470767,484.32409 L619.460319,484.209705 C619.418525,483.679376 619.63794,483.045061 620.139459,482.29636 L620.264839,482.285962 L620.494702,483.180243 L620.766358,483.159445 C620.75591,483.097054 620.829048,482.743501 620.975324,482.088388 C620.964876,481.953206 620.860393,481.870017 620.651426,481.859619 L620.390219,482.025997 C620.369322,481.838821 620.37977,481.350087 620.411115,480.570191 L620.275287,480.580589 C620.045424,480.35182 619.930493,480.164645 619.920044,480.008666 L618.425936,480.154246 C618.415487,480.05026 618.363246,479.894281 618.258763,479.696707 C618.248314,479.561525 618.58266,479.426343 619.272249,479.291161 L619.57525,479.405546 L619.857355,479.239168 C619.867803,479.332756 619.920044,479.37435 620.024528,479.363951 L620.306632,479.197574 C620.31708,479.291161 620.369322,479.332756 620.473805,479.322357 L620.609633,479.311958 L620.588737,479.010399 C620.37977,479.031196 619.82601,479.031196 618.948351,479 L618.666247,479.187175 L618.655798,479.020797 C611.64498,479.592721 607.664172,479.915078 606.713375,480.008666 C606.587996,480.019064 606.096925,480.008666 605.229715,479.987868 C605.240163,480.102253 605.13568,480.164645 604.926714,480.185442 L604.623712,480.05026 L603.599778,480.310225 C603.359466,480.331023 602.951982,480.320624 602.387773,480.258232 C602.231049,480.383016 602.042979,480.455806 601.813116,480.476603 C601.687736,480.487002 603.307225,480.393414 604.811782,480.289428 C604.655057,480.414211 604.414746,480.487002 604.0804,480.518198 C603.850537,480.538995 603.652019,480.507799 603.484846,480.414211 C603.254983,480.518198 602.513153,480.684575 601.269804,480.934142 L600.966803,480.819757 L596.076991,481.568458 C595.888922,481.47487 595.669507,481.443674 595.418748,481.464471 C595.15754,481.485269 594.718711,481.578856 594.112708,481.745234 L591.751389,482.722704 L591.929011,483.013865 C592.043942,483.003466 592.211115,482.941075 592.409633,482.82669 L593.245498,482.89948 L593.141015,483.679376 C592.36784,484.02253 591.918562,484.532062 591.793183,485.176776 C590.63342,485.686308 590.058763,486.05026 590.058763,486.268631 L590.069211,486.403813 L590.246832,486.393414 L590.560282,486.227036 L590.925973,486.663778 L590.978214,487.266898 C590.999111,487.454073 589.045276,491.540728 585.137607,499.526863 C581.752353,507.221837 579.976139,511.433276 579.808966,512.192374 C578.649203,512.514731 577.980511,512.982669 577.781993,513.606586 C577.80289,513.804159 578.147684,513.939341 578.816376,513.991334 L578.847721,514.292894 L578.54472,514.792028 L578.596962,515.395147 C578.628307,515.707106 579.47462,515.946274 581.135902,516.112652 C581.125454,516.008666 581.177695,515.946274 581.292627,515.935875 C581.323972,516.310225 581.219489,517.038128 580.979177,518.119584 L581.156799,518.109185 C581.846388,517.17331 582.170285,516.528596 582.13894,516.175043 L582.285217,516.164645 C582.45239,516.154246 582.630011,516.341421 582.838977,516.746967 C582.630011,516.830156 581.898629,518.483536 580.644831,521.717504 L580.822453,522.008666 L581.000074,521.998267 C582.535976,518.129983 583.497221,515.987868 583.894257,515.582322 C585.910782,515.405546 589.400519,515.051993 594.35302,514.521664 L594.666469,514.334489 C594.676917,514.438475 594.739607,514.490468 594.854539,514.480069 L595.178436,514.448873 L595.491886,514.261698 C595.502334,514.365685 595.565024,514.417678 595.679956,514.407279 L599.4309,514.084922 C600.42349,514.001733 600.893664,513.700173 600.851871,513.190641 C600.841423,513.055459 601.426528,512.89948 602.607188,512.733102 C602.722119,512.722704 602.889292,512.753899 603.119155,512.82669 C603.108707,512.733102 603.704261,512.639515 604.895369,512.535529 C604.926714,511.911612 605.125232,511.578856 605.480474,511.54766 L605.449129,511.246101 C605.114783,511.277296 604.738644,511.360485 604.299815,511.506066 C603.516191,511.464471 603.014672,511.40208 602.805706,511.329289 C602.59674,511.443674 602.440015,511.506066 602.325083,511.516464 L599.713005,511.599653 L599.399555,511.766031 C599.389107,511.672444 599.326417,511.630849 599.211486,511.641248 L599.065209,511.651646 L598.730863,511.818024 C598.720415,511.724437 598.448759,511.651646 597.905446,511.578856 L597.5711,511.77643 L596.923305,511.828423 L596.912857,511.662045 C600.277214,511.298094 601.938496,510.840555 601.896702,510.299827 C602.116117,510.279029 602.231049,510.383016 602.251945,510.601386 L603.234087,510.35182 L603.202742,510.05026 L595.147092,510.268631 C595.15754,510.372617 595.105298,510.435009 594.990367,510.445407 L594.008225,510.362218 C593.757466,510.383016 593.548499,510.455806 593.381326,510.580589 L593.015635,510.445407 C592.002149,510.528596 591.24987,510.65338 590.748351,510.809359 C590.058763,510.757366 589.296036,510.767764 588.449722,510.840555 L586.642164,510.996534 L585.806299,510.902946 C585.764505,510.372617 586.798888,507.762565 588.930345,503.083189 C589.546795,501.5026 590.111004,500.514731 590.654316,500.140381 C590.769248,500.129983 590.936421,500.171577 591.166284,500.265165 L592.451426,499.828423 L593.10967,499.932409 C594.217192,499.838821 595.502334,499.526863 596.975546,498.986135 C597.341237,498.954939 597.612894,498.975737 597.811412,499.058925 L598.793553,498.830156 L601.719081,498.580589 C602.962431,498.476603 604.310263,498.206239 605.773027,497.759099 L605.741682,497.457539 C605.19837,497.509532 604.916265,497.415945 604.895369,497.197574 C604.864024,496.792028 604.466988,496.62565 603.704261,496.688042 L603.672916,496.386482 L604.477436,496.157712 L606.587996,495.980936 L606.556651,495.679376 C606.473064,495.689775 606.044683,495.679376 605.250611,495.64818 L605.219266,495.325823 L606.034235,495.253033 C606.253649,495.232236 606.347684,495.12825 606.326788,494.920277 C605.229715,494.951473 604.675954,494.89948 604.665506,494.753899 C597.01734,495.12825 593.182808,495.20104 593.161912,494.961872 C593.04698,494.97227 592.890256,495.045061 592.681289,495.169844 L592.482771,494.857886 C594.509744,490.573657 595.700852,488.410745 596.045647,488.379549 C596.056095,488.545927 595.972508,488.816291 595.794887,489.180243 L595.805335,489.315425 L596.129233,489.284229 C596.933753,487.370884 597.612894,486.383016 598.177103,486.341421 C600.580215,486.133449 597.842757,485.97747 602.983327,485.176776 C603.192293,485.270364 603.33857,485.311958 603.443053,485.30156 C605.459578,484.896014 608.270174,484.469671 611.874843,484.032929 L611.853946,483.731369 L609.931456,483.908146 L609.910559,483.606586 C610.140422,483.585789 610.328492,483.512998 610.485217,483.388215 L610.495665,483.554593 C610.600148,483.544194 610.746425,483.471404 610.934494,483.34662 C611.26884,483.315425 611.5196,483.34662 611.697221,483.440208 C612.365913,483.263432 612.909226,483.159445 613.306262,483.117851 L614.507818,483.003466 C614.800371,482.816291 614.936199,482.649913 614.92575,482.493934 L614.915302,482.358752 C614.612301,482.389948 614.267506,482.369151 613.860022,482.29636 C613.849574,482.129983 613.93316,482.015598 614.131678,481.963605 L616.367618,481.755633 L617.391552,481.495667 C617.402001,481.610052 617.454242,481.651646 617.537829,481.651646 C617.642312,481.641248 617.788588,481.568458 617.976658,481.443674 C618.0289,481.454073 618.091589,481.454073 618.143831,481.464471 C618.008003,481.745234 617.851278,482.15078 617.694554,482.681109 L617.402001,482.701906 C617.381104,482.504333 617.328863,482.327556 617.234828,482.171577 L617.088551,482.181976 C614.37199,489.710572 613.159985,493.214905 610.65239,498.996534 C610.192664,500.473137 609.806076,501.294627 609.47173,501.471404 C609.482179,501.637782 609.586662,501.720971 609.764283,501.700173 C609.826973,502.428076 609.6598,503.145581 609.252316,503.852686 C608.092553,507.180243 607.319378,509 606.922342,509.332756 L607.183549,510.902946 C607.193998,511.069324 607.110411,511.162912 606.93279,511.183709 L606.661134,511.204506 C606.61934,510.767764 606.462616,510.559792 606.180511,510.590988 L606.034235,510.601386 C605.678992,511.152513 605.407336,511.786828 605.229715,512.52513 L605.501371,512.504333 C605.867062,512.265165 606.034235,511.984402 606.00289,511.662045 L606.546202,511.610052 L606.859652,511.724437 C606.608892,512.119584 606.493961,512.431542 606.514857,512.670711 L606.661134,512.920277 L606.305891,513.752166 L606.316339,513.887348 C606.629789,513.856153 606.974583,513.960139 607.340274,514.17851 C607.591034,514.157712 607.86269,514.043328 608.165691,513.845754 C608.47914,513.814558 609.649352,513.804159 611.665876,513.804159 L612.679363,513.461005 C613.912264,513.450607 614.110782,513.481802 615.17651,513.388215 L615.615339,513.34662 L615.845202,513.190641 L615.85565,513.325823 C616.97362,513.232236 617.046758,513.305026 617.924416,513.409012 L617.934865,513.544194 L617.318414,513.596187 L617.339311,513.856153 C617.527381,513.835355 617.694554,513.783362 617.830382,513.668977 C617.987106,513.658579 618.081141,513.741768 618.091589,513.928943 C617.84083,513.94974 617.558725,514.012132 617.245276,514.116118 L616.97362,514.02253 C616.545239,514.136915 616.639274,514.168111 616.346721,514.188908 L615.91834,514.105719 C615.928788,514.17851 615.886995,514.230503 615.813857,514.230503 C615.824305,514.39688 615.91834,514.480069 616.075065,514.469671 L616.513894,514.428076 L618.802075,514.230503 L619.669285,514.043328 C619.679733,514.116118 619.711078,514.157712 619.784216,514.147314 L620.202149,513.991334 L620.985773,513.928943 C621.591775,513.87695 621.581326,513.835355 622.897814,513.627383 C622.887366,513.544194 622.918711,513.512998 622.981401,513.5026 L622.991849,513.616984 C625.133753,513.253033 625.269581,513.232236 625.614376,513.117851 L625.645721,513.180243 C626.178585,513.055459 625.875584,513.086655 626.02186,512.982669 C626.032308,513.076256 626.063653,513.117851 626.115895,513.117851 L626.492034,513.086655 L626.471137,512.805893 L625.708411,512.795494 L625.697962,512.774697 C625.666617,512.785095 625.645721,512.785095 625.614376,512.795494 L625.509893,512.795494 L625.509893,512.816291 C624.997925,512.920277 624.987477,512.847487 624.653131,512.878683 L622.741089,512.982669 L622.730641,512.847487 L623.796369,512.701906 L624.182957,512.670711 L624.402371,512.514731 L624.41282,512.649913 C625.917377,512.52513 626.450241,512.89948 633.408818,511.422877 C633.784957,511.391681 633.753612,511.079723 633.993924,510.435009 C633.868544,510.445407 633.743164,510.414211 633.628233,510.35182 C633.053575,510.570191 632.750574,510.466205 631.643053,510.642981 C631.549018,510.65338 631.47588,510.570191 631.444535,510.403813 L631.434087,510.289428 L632.499815,510.320624 C632.698333,510.299827 633.08492,510.268631 633.659578,509.946274 C633.659578,510.039861 633.440163,510.091854 633.565543,510.081456 L633.565543,510.081456 Z M582.118044,510.902946 L581.626973,510.944541 C581.606076,510.746967 581.867284,509.998267 582.410597,508.719237 L582.734494,508.688042 C582.744943,508.989601 582.546425,509.727903 582.118044,510.902946 Z M582.713598,508.532062 L582.703149,508.39688 C582.692701,508.230503 582.797184,508.116118 583.027047,508.064125 L583.037495,508.199307 C583.047944,508.39688 582.943461,508.511265 582.713598,508.532062 Z M589.243794,513.554593 L589.254242,513.689775 L588.439274,513.762565 L588.428825,513.627383 L589.243794,513.554593 Z M588.261652,513.471404 C588.272101,513.637782 588.021341,513.824957 587.478029,514.012132 L586.474991,513.939341 L586.151093,513.970537 L586.119748,513.668977 L588.261652,513.471404 L588.261652,513.471404 Z M594.864987,483.221837 L594.373916,483.263432 L594.363468,483.097054 C594.35302,482.930676 594.447054,482.816291 594.656021,482.764298 L594.833642,482.753899 L595.167988,482.889081 C595.178436,483.086655 595.084402,483.20104 594.864987,483.221837 L594.864987,483.221837 Z M602.335532,481.766031 L602.492256,481.755633 L602.513153,482.057192 L602.063876,482.098787 C602.053427,481.932409 602.137014,481.818024 602.335532,481.766031 L602.335532,481.766031 Z M600.454835,482.421144 L599.713005,482.337955 L599.702557,482.202773 C600.67425,482.119584 600.998147,482.015598 601.593701,481.84922 C601.60415,481.963605 601.708633,482.005199 601.896702,481.984402 L601.917599,482.285962 L601.625046,482.317158 C601.395183,482.337955 601.196665,482.306759 601.029492,482.213172 C600.851871,482.327556 600.663801,482.400347 600.454835,482.421144 L600.454835,482.421144 Z M601.384735,485.114385 L601.374287,484.979203 L602.575843,484.864818 L602.586291,485 L601.384735,485.114385 Z M602.669878,484.074523 L602.659429,483.908146 L603.244535,483.856153 L603.254983,484.02253 L602.669878,484.074523 Z M602.805706,482.036395 L602.648981,482.046794 L602.784809,481.724437 L604.122193,481.599653 L604.132642,481.766031 C603.787847,481.797227 603.33857,481.890815 602.805706,482.036395 L602.805706,482.036395 Z M603.484846,484.906412 L603.46395,484.604853 L604.049055,484.55286 C604.247573,484.532062 604.352056,484.62565 604.362505,484.833622 L603.484846,484.906412 L603.484846,484.906412 Z M607.026825,480.102253 L606.274546,480.310225 L606.138718,480.320624 C605.783475,480.35182 605.32375,480.341421 604.780437,480.289428 C605.75213,480.227036 606.68203,480.154246 607.026825,480.102253 Z M606.222305,483.429809 L606.232753,483.564991 L605.19837,483.658579 L605.187921,483.523397 L606.222305,483.429809 Z M607.914931,484.230503 C607.904483,484.105719 607.705965,484.02253 607.298481,483.980936 L606.264098,484.272097 L605.470026,484.303293 C605.292405,484.17851 605.19837,484.095321 605.187921,484.032929 L606.107373,484.084922 L608.176139,483.752166 L609.231419,483.793761 L609.241867,483.960139 C608.719452,484.012132 608.280622,484.105719 607.914931,484.230503 L607.914931,484.230503 Z M618.561764,481.495667 C618.687143,481.506066 618.77073,481.506066 618.802075,481.506066 C619.167766,481.152513 619.57525,480.87175 620.045424,480.674177 C619.669285,482.317158 619.084179,483.533795 618.279659,484.32409 L617.694554,483.970537 C618.185624,482.733102 618.478177,481.911612 618.561764,481.495667 L618.561764,481.495667 Z M616.764654,484.563258 L616.91093,484.55286 C616.712412,484.92721 616.534791,485.124783 616.388514,485.135182 L616.357169,484.740035 C616.451204,484.740035 616.587032,484.677643 616.764654,484.563258 L616.764654,484.563258 Z M615.604891,487.318891 C615.886995,486.195841 616.158651,485.561525 616.409411,485.395147 L616.419859,485.530329 C616.273583,486.570191 616.04372,487.121317 615.740719,487.162912 L615.79296,487.818024 C615.542201,488.171577 615.427269,488.441941 615.437718,488.649913 L615.291441,488.660312 L615.207855,487.755633 C615.375028,487.734835 615.510856,487.589255 615.604891,487.318891 L615.604891,487.318891 Z M615.155613,488.816291 C615.166062,488.97227 615.061578,489.336222 614.852612,489.897747 L614.706336,489.908146 L614.674991,489.512998 C614.873509,489.055459 615.040682,488.82669 615.155613,488.816291 L615.155613,488.816291 Z M606.723824,513.169844 L606.713375,513.055459 L606.985031,513.034662 L607.016376,513.429809 C606.8701,513.440208 606.765617,513.357019 606.723824,513.169844 Z M618.77073,513.481802 C618.760282,513.388215 618.718488,513.34662 618.624454,513.357019 L617.945313,513.419411 L617.934865,513.284229 L617.997555,513.284229 L619.606595,513.149047 L619.617043,513.284229 C619.146869,513.305026 618.864765,513.377816 618.77073,513.481802 Z M617.96621,513.149047 C618.0289,513.180243 617.997555,513.211438 617.96621,513.232236 C617.934865,513.221837 617.893072,513.190641 617.96621,513.149047 Z M618.049796,511.277296 L617.151241,511.350087 L617.140793,511.214905 L617.955761,511.142114 L618.666247,510.965338 C618.676695,511.048527 618.718488,511.079723 618.812523,511.069324 C619.658837,510.923744 619.57525,510.882149 619.982734,510.850953 C620.118562,510.840555 620.202149,510.923744 620.212597,511.090121 L618.049796,511.277296 L618.049796,511.277296 Z M621.194739,511.006932 C620.69322,510.954939 620.661875,510.913345 620.306632,510.944541 L620.296184,510.830156 L621.100704,510.757366 L621.111152,510.87175 C621.027566,510.882149 621.330567,510.902946 621.194739,511.006932 Z M621.257429,510.861352 L621.24698,510.746967 L621.68581,510.705373 L621.696258,510.819757 L621.257429,510.861352 Z M622.229122,510.778163 L622.218674,510.663778 C622.291812,510.65338 622.396295,510.601386 622.532123,510.4974 C622.751538,510.476603 622.866469,510.622184 622.887366,510.788562 L622.229122,510.778163 L622.229122,510.778163 Z M623.472471,510.622184 L623.462023,510.487002 L623.994887,510.445407 L624.005335,510.580589 L623.472471,510.622184 Z M624.214302,510.559792 C624.203853,510.403813 624.266543,510.310225 624.402371,510.289428 L624.579993,510.518198 C624.569544,510.445407 624.600889,510.403813 624.663579,510.393414 L624.799407,510.642981 L624.214302,510.559792 L624.214302,510.559792 Z M634.495443,509.353553 L634.505891,509.343154 L634.505891,509.332756 C634.505891,509.332756 634.495443,509.343154 634.495443,509.353553 L634.495443,509.353553 Z M634.683512,509.218371 C634.767099,509.166378 634.808892,509.114385 634.610374,509.083189 C634.516339,509.187175 634.714857,509.218371 634.505891,509.228769 L634.516339,509.322357 C634.537236,509.30156 634.589478,509.270364 634.631271,509.239168 L634.516339,509.332756 L634.516339,509.343154 L634.296925,509.623917 L634.735754,509.467938 L634.787996,509.467938 L634.767099,509.207972 L634.683512,509.218371 L634.683512,509.218371 Z M635.446239,509.811092 L635.362653,509.82149 L635.383549,510.081456 L636,510.029463 C635.989552,509.863085 635.582067,509.811092 635.446239,509.811092 L635.446239,509.811092 Z" id="Shape"></path>
        </g>
    </g>
</svg>