<?xml version="1.0" encoding="UTF-8"?>
<svg width="140px" height="54px" viewBox="0 0 140 54" version="1.1" xmlns="http://www.w3.org/2000/svg" xmlns:xlink="http://www.w3.org/1999/xlink">
    <!-- Generator: Sketch 53.2 (72643) - https://sketchapp.com -->
    <title>Group 5</title>
    <desc>Created with Sketch.</desc>
    <g id="Page-1" stroke="none" stroke-width="1" fill="none" fill-rule="evenodd">
        <g id="Technologies" transform="translate(-425.000000, -658.000000)" fill-rule="nonzero">
            <g id="Group-5" transform="translate(425.000000, 658.000000)">
                <path d="M0,0 L140,0 L140,46.2857143 L70,46.2857143 L70,54 L38.8888889,54 L38.8888889,46.2857143 L0,46.2857143 L0,0 Z M7.77777778,38.5714286 L23.3333333,38.5714286 L23.3333333,15.4285714 L31.1111111,15.4285714 L31.1111111,38.5714286 L38.8888889,38.5714286 L38.8888889,7.71428571 L7.77777778,7.71428571 L7.77777778,38.5714286 Z M46.6666667,7.71428571 L46.6666667,46.2857143 L62.2222222,46.2857143 L62.2222222,38.5714286 L77.7777778,38.5714286 L77.7777778,7.71428571 L46.6666667,7.71428571 Z M62.2222222,15.4285714 L70,15.4285714 L70,30.8571429 L62.2222222,30.8571429 L62.2222222,15.4285714 Z M85.5555556,7.71428571 L85.5555556,38.5714286 L101.111111,38.5714286 L101.111111,15.4285714 L108.888889,15.4285714 L108.888889,38.5714286 L116.666667,38.5714286 L116.666667,15.4285714 L124.444444,15.4285714 L124.444444,38.5714286 L132.222222,38.5714286 L132.222222,7.71428571 L85.5555556,7.71428571 Z" id="Shape" fill="#CB3837"></path>
                <polygon id="Path" fill="#FFFFFF" points="8 39 23.5 39 23.5 15.75 31.25 15.75 31.25 39 39 39 39 8 8 8"></polygon>
                <path d="M47,8 L47,47 L62.5,47 L62.5,39.2 L78,39.2 L78,8 L47,8 Z M70.25,31.4 L62.5,31.4 L62.5,15.8 L70.25,15.8 L70.25,31.4 Z" id="Shape" fill="#FFFFFF"></path>
                <polygon id="Path" fill="#FFFFFF" points="86 8 86 39 101.666667 39 101.666667 15.75 109.5 15.75 109.5 39 117.333333 39 117.333333 15.75 125.166667 15.75 125.166667 39 133 39 133 8"></polygon>
            </g>
        </g>
    </g>
</svg>